<svg version="1.1" viewBox="0.0 0.0 960.0 720.0" fill="none" stroke="none" stroke-linecap="square" stroke-miterlimit="10" xmlns:xlink="http://www.w3.org/1999/xlink" xmlns="http://www.w3.org/2000/svg"><clipPath id="p.0"><path d="m0 0l960.0 0l0 720.0l-960.0 0l0 -720.0z" clip-rule="nonzero"/></clipPath><g clip-path="url(#p.0)"><path fill="#000000" fill-opacity="0.0" d="m0 0l960.0 0l0 720.0l-960.0 0z" fill-rule="evenodd"/><path fill="#ffffff" d="m118.973755 337.18454l188.40945 0l0 376.6929l-188.40945 0z" fill-rule="evenodd"/><path stroke="#ffffff" stroke-width="1.0" stroke-linejoin="round" stroke-linecap="butt" d="m118.973755 337.18454l188.40945 0l0 376.6929l-188.40945 0z" fill-rule="evenodd"/><path fill="#ffffff" d="m515.5747 337.18454l188.40942 0l0 376.6929l-188.40942 0z" fill-rule="evenodd"/><path stroke="#ffffff" stroke-width="1.0" stroke-linejoin="round" stroke-linecap="butt" d="m515.5747 337.18454l188.40942 0l0 376.6929l-188.40942 0z" fill-rule="evenodd"/><path fill="#ffffff" d="m118.97396 312.3773l585.0079 0l0 205.0394l-585.0079 0z" fill-rule="evenodd"/><path stroke="#ffffff" stroke-width="1.0" stroke-linejoin="round" stroke-linecap="butt" d="m118.97396 312.3773l585.0079 0l0 205.0394l-585.0079 0z" fill-rule="evenodd"/><path fill="#ffffff" d="m118.97396 312.36478l294.83228 -271.3386l290.17557 271.3386z" fill-rule="evenodd"/><path stroke="#ffffff" stroke-width="1.0" stroke-linejoin="round" stroke-linecap="butt" d="m118.97396 312.36478l294.83228 -271.3386l290.17557 271.3386z" fill-rule="evenodd"/></g></svg>