<svg version="1.1" viewBox="0.0 0.0 960.0 720.0" fill="none" stroke="none" stroke-linecap="square" stroke-miterlimit="10" xmlns:xlink="http://www.w3.org/1999/xlink" xmlns="http://www.w3.org/2000/svg"><clipPath id="p.0"><path d="m0 0l960.0 0l0 720.0l-960.0 0l0 -720.0z" clip-rule="nonzero"/></clipPath><g clip-path="url(#p.0)"><path fill="#000000" fill-opacity="0.0" d="m0 0l960.0 0l0 720.0l-960.0 0z" fill-rule="evenodd"/><path fill="#ffffff" d="m0 21.032078l0 0c0 -11.619955 9.419835 -21.039791 21.039791 -21.039791l917.9204 0c5.580078 0 10.931641 2.216686 14.87738 6.1624117c3.9457397 3.9457264 6.1624146 9.297279 6.1624146 14.877378l0 84.15665c0 11.619949 -9.419861 21.039787 -21.039795 21.039787l-917.9204 0c-11.619956 0 -21.039791 -9.419838 -21.039791 -21.039787z" fill-rule="evenodd"/><path stroke="#434343" stroke-width="1.0" stroke-linejoin="round" stroke-linecap="butt" d="m0 21.032078l0 0c0 -11.619955 9.419835 -21.039791 21.039791 -21.039791l917.9204 0c5.580078 0 10.931641 2.216686 14.87738 6.1624117c3.9457397 3.9457264 6.1624146 9.297279 6.1624146 14.877378l0 84.15665c0 11.619949 -9.419861 21.039787 -21.039795 21.039787l-917.9204 0c-11.619956 0 -21.039791 -9.419838 -21.039791 -21.039787z" fill-rule="evenodd"/><path fill="#ffffff" d="m0 317.9159l0 0c0 -11.619965 9.419835 -21.039795 21.039791 -21.039795l917.9204 0c5.580078 0 10.931641 2.2166748 14.87738 6.1624146c3.9457397 3.9457092 6.1624146 9.297272 6.1624146 14.87738l0 84.15662c0 11.619965 -9.419861 21.039795 -21.039795 21.039795l-917.9204 0c-11.619956 0 -21.039791 -9.41983 -21.039791 -21.039795z" fill-rule="evenodd"/><path stroke="#434343" stroke-width="1.0" stroke-linejoin="round" stroke-linecap="butt" d="m0 317.9159l0 0c0 -11.619965 9.419835 -21.039795 21.039791 -21.039795l917.9204 0c5.580078 0 10.931641 2.2166748 14.87738 6.1624146c3.9457397 3.9457092 6.1624146 9.297272 6.1624146 14.87738l0 84.15662c0 11.619965 -9.419861 21.039795 -21.039795 21.039795l-917.9204 0c-11.619956 0 -21.039791 -9.41983 -21.039791 -21.039795z" fill-rule="evenodd"/><path fill="#ffffff" d="m0 614.7997l0 0c0 -11.619934 9.419835 -21.039795 21.039791 -21.039795l917.9204 0c5.580078 0 10.931641 2.2166748 14.87738 6.1624146c3.9457397 3.9457397 6.1624146 9.297302 6.1624146 14.87738l0 84.15662c0 11.619995 -9.419861 21.039795 -21.039795 21.039795l-917.9204 0c-11.619956 0 -21.039791 -9.4198 -21.039791 -21.039795z" fill-rule="evenodd"/><path stroke="#434343" stroke-width="1.0" stroke-linejoin="round" stroke-linecap="butt" d="m0 614.7997l0 0c0 -11.619934 9.419835 -21.039795 21.039791 -21.039795l917.9204 0c5.580078 0 10.931641 2.2166748 14.87738 6.1624146c3.9457397 3.9457397 6.1624146 9.297302 6.1624146 14.87738l0 84.15662c0 11.619995 -9.419861 21.039795 -21.039795 21.039795l-917.9204 0c-11.619956 0 -21.039791 -9.4198 -21.039791 -21.039795z" fill-rule="evenodd"/></g></svg>