<svg version="1.1" viewBox="0.0 0.0 960.0 720.0" fill="none" stroke="none" stroke-linecap="square" stroke-miterlimit="10" xmlns:xlink="http://www.w3.org/1999/xlink" xmlns="http://www.w3.org/2000/svg"><clipPath id="p.0"><path d="m0 0l960.0 0l0 720.0l-960.0 0l0 -720.0z" clip-rule="nonzero"/></clipPath><g clip-path="url(#p.0)"><path fill="#000000" fill-opacity="0.0" d="m0 0l960.0 0l0 720.0l-960.0 0z" fill-rule="evenodd"/><path fill="#000000" fill-opacity="0.0" d="m115.34382 272.8215l0 0c0 -125.25122 109.84887 -226.7874 245.35434 -226.7874l0 0c135.50546 0 245.35434 101.53618 245.35434 226.7874l0 0c0 125.25122 -109.84888 226.78741 -245.35434 226.78741l0 0c-135.50546 0 -245.35434 -101.536194 -245.35434 -226.78741z" fill-rule="evenodd"/><path stroke="#ffffff" stroke-width="24.0" stroke-linejoin="round" stroke-linecap="butt" d="m115.34382 272.8215l0 0c0 -125.25122 109.84887 -226.7874 245.35434 -226.7874l0 0c135.50546 0 245.35434 101.53618 245.35434 226.7874l0 0c0 125.25122 -109.84888 226.78741 -245.35434 226.78741l0 0c-135.50546 0 -245.35434 -101.536194 -245.35434 -226.78741z" fill-rule="evenodd"/><path fill="#000000" fill-opacity="0.0" d="m534.1899 433.18442l257.70074 205.6063" fill-rule="evenodd"/><path stroke="#ffffff" stroke-width="24.0" stroke-linejoin="round" stroke-linecap="butt" d="m534.1899 433.18442l257.70074 205.6063" fill-rule="evenodd"/></g></svg>