<svg version="1.1" viewBox="0.0 0.0 960.0 720.0" fill="none" stroke="none" stroke-linecap="square" stroke-miterlimit="10" xmlns:xlink="http://www.w3.org/1999/xlink" xmlns="http://www.w3.org/2000/svg"><clipPath id="p.0"><path d="m0 0l960.0 0l0 720.0l-960.0 0l0 -720.0z" clip-rule="nonzero"/></clipPath><g clip-path="url(#p.0)"><path fill="#000000" fill-opacity="0.0" d="m0 0l960.0 0l0 720.0l-960.0 0z" fill-rule="evenodd"/><path fill="#000000" d="m229.72179 623.0687l0 0c-27.405502 -44.104492 -13.338425 -101.19849 31.419693 -127.52295l316.34167 -186.0564l0 0c21.493652 -12.6414795 47.33496 -16.351562 71.83917 -10.314117c24.504211 6.0374756 45.664062 21.327942 58.824646 42.50766l0 0l0 0c27.405518 44.104523 13.33844 101.19849 -31.419678 127.52298l-316.3417 186.05643c-44.758118 26.324463 -103.2583 11.91095 -130.6638 -32.193604z" fill-rule="evenodd"/><path stroke="#ffffff" stroke-width="24.0" stroke-linejoin="round" stroke-linecap="butt" d="m229.72179 623.0687l0 0c-27.405502 -44.104492 -13.338425 -101.19849 31.419693 -127.52295l316.34167 -186.0564l0 0c21.493652 -12.6414795 47.33496 -16.351562 71.83917 -10.314117c24.504211 6.0374756 45.664062 21.327942 58.824646 42.50766l0 0l0 0c27.405518 44.104523 13.33844 101.19849 -31.419678 127.52298l-316.3417 186.05643c-44.758118 26.324463 -103.2583 11.91095 -130.6638 -32.193604z" fill-rule="evenodd"/><path fill="#000000" d="m189.34122 402.11215l0 0c-27.405502 -44.104492 -13.338837 -101.19919 31.418777 -127.52457l309.94983 -182.30519l0 0c21.493347 -12.6418915 47.334473 -16.352386 71.8385 -10.315216c24.504028 6.037163 45.66382 21.327454 58.8244 42.507187l0 0l0 0c27.405457 44.104507 13.338806 101.19919 -31.418823 127.52457l-309.94983 182.3052c-44.7576 26.325348 -103.25737 11.912537 -130.66287 -32.191986z" fill-rule="evenodd"/><path stroke="#ffffff" stroke-width="24.0" stroke-linejoin="round" stroke-linecap="butt" d="m189.34122 402.11215l0 0c-27.405502 -44.104492 -13.338837 -101.19919 31.418777 -127.52457l309.94983 -182.30519l0 0c21.493347 -12.6418915 47.334473 -16.352386 71.8385 -10.315216c24.504028 6.037163 45.66382 21.327454 58.8244 42.507187l0 0l0 0c27.405457 44.104507 13.338806 101.19919 -31.418823 127.52457l-309.94983 182.3052c-44.7576 26.325348 -103.25737 11.912537 -130.66287 -32.191986z" fill-rule="evenodd"/><path fill="#000000" d="m362.4252 293.93964l155.43307 0l0 160.0l-155.43307 0z" fill-rule="evenodd"/><path stroke="#000000" stroke-width="1.0" stroke-linejoin="round" stroke-linecap="butt" d="m362.4252 293.93964l155.43307 0l0 160.0l-155.43307 0z" fill-rule="evenodd"/><path fill="#ffffff" d="m390.50394 311.04724l127.33859 71.44882l-127.33859 71.44882z" fill-rule="evenodd"/><path stroke="#000000" stroke-width="1.0" stroke-linejoin="round" stroke-linecap="butt" d="m390.50394 311.04724l127.33859 71.44882l-127.33859 71.44882z" fill-rule="evenodd"/></g></svg>