<svg version="1.1" viewBox="0.0 0.0 960.0 720.0" fill="none" stroke="none" stroke-linecap="square" stroke-miterlimit="10" xmlns:xlink="http://www.w3.org/1999/xlink" xmlns="http://www.w3.org/2000/svg"><clipPath id="p.0"><path d="m0 0l960.0 0l0 720.0l-960.0 0l0 -720.0z" clip-rule="nonzero"/></clipPath><g clip-path="url(#p.0)"><path fill="#000000" fill-opacity="0.0" d="m0 0l960.0 0l0 720.0l-960.0 0z" fill-rule="evenodd"/><path fill="#000000" fill-opacity="0.0" d="m21.981627 211.03543l928.4409 0l0 416.37796l-928.4409 0z" fill-rule="evenodd"/><path stroke="#ffffff" stroke-width="16.0" stroke-linejoin="round" stroke-linecap="butt" d="m21.981627 211.03543l928.4409 0l0 416.37796l-928.4409 0z" fill-rule="evenodd"/><path fill="#ffffff" d="m344.15344 254.57768l289.6693 170.34645l-289.6693 170.34644z" fill-rule="evenodd"/><path fill="#ffffff" d="m111.91601 143.53674l754.1417 0l0 31.02362l-754.1417 0z" fill-rule="evenodd"/><path fill="#ffffff" d="m230.94226 76.038055l510.51965 0l0 31.02362l-510.51965 0z" fill-rule="evenodd"/><path fill="#ffffff" d="m14.577428 203.27821l15.527558 0l0 39.81102l-15.527558 0z" fill-rule="evenodd"/><path fill="#ffffff" d="m13.128609 595.2703l15.527559 0l0 39.811035l-15.527559 0z" fill-rule="evenodd"/><path fill="#ffffff" d="m943.084 203.27821l15.527588 0l0 39.81102l-15.527588 0z" fill-rule="evenodd"/><path fill="#ffffff" d="m943.084 595.2703l15.527588 0l0 39.811035l-15.527588 0z" fill-rule="evenodd"/></g></svg>