<svg version="1.1" viewBox="0.0 0.0 960.0 720.0" fill="none" stroke="none" stroke-linecap="square" stroke-miterlimit="10" xmlns:xlink="http://www.w3.org/1999/xlink" xmlns="http://www.w3.org/2000/svg"><clipPath id="p.0"><path d="m0 0l960.0 0l0 720.0l-960.0 0l0 -720.0z" clip-rule="nonzero"/></clipPath><g clip-path="url(#p.0)"><path fill="#000000" fill-opacity="0.0" d="m0 0l960.0 0l0 720.0l-960.0 0z" fill-rule="evenodd"/><path fill="#ffffff" d="m98.57481 131.00262l34.047234 0l0 567.74805l-34.047234 0z" fill-rule="evenodd"/><path fill="#ffffff" d="m132.62204 664.6982l524.28345 0l0 34.04724l-524.28345 0z" fill-rule="evenodd"/><path fill="#ffffff" d="m389.13254 153.28212l193.48032 145.721l-193.48032 139.91681z" fill-rule="evenodd"/><path fill="#ffffff" d="m214.92914 539.36743l541.8898 0l0 34.04724l-541.8898 0z" fill-rule="evenodd"/><path fill="#ffffff" d="m248.97638 18.787401l0 546.01575l-34.04724 0l0 -546.01575z" fill-rule="evenodd"/><path fill="#ffffff" d="m756.8163 40.154686l0 533.2599l-34.04724 0l0 -533.2599z" fill-rule="evenodd"/><path fill="#ffffff" d="m214.92914 18.787401l541.8898 0l0 34.04724l-541.8898 0z" fill-rule="evenodd"/></g></svg>